<svg width="2780" height="7830" xmlns="http://www.w3.org/2000/svg" xmlns:xlink="http://www.w3.org/1999/xlink" viewBox="-200 -200 2780 7830">

	<path d="M 110 180 q 10 -25 50 -20 z" stroke="#ff7702" stroke-width="20" fill="#ff7702" stroke-linecap="round" />
	<path d="M 240 110 q 20 -35 140 -30 z" stroke="#f9ffc8" stroke-width="20" fill="#f9ffc8" stroke-linecap="round" />
	<path d="M 430 70 q 20 -35 140 -25 z" stroke="#f9ffc8" stroke-width="20" fill="#f9ffc8" stroke-linecap="round" />
	
	<!-- frame -->
	<path d="M 30 7280 l 0 -6910 q 30 -330 1155 -340 q 1140 10 1155 340 l 0 6910 q -30 70 -80 100 l -2150 0 q -50 -30 -80 -110" stroke="#fbf74e" stroke-width="60" fill="#666" />

	<g>
		<path d="M 60 740 l 0 -200 q 30 -330 1125 -340 q 1125 10 1125 340 l 0 200 z" stroke="#444" stroke-width="8" fill="#888" />
		<path d="M 60 600 l 0 -60 q 30 -330 1125 -340 q 1125 10 1125 340 l 0 90 l -360 140 l -600 0 l -30 20 l -940 0 l -70 -100 z" stroke="#444" stroke-width="8" fill="#888" />
	</g>


	<path d="M 850 800 l 800 0 l 0 800 q 0 300 -300 300 l -400 0 l -100 -150 z" stroke="#444" stroke-width="8" fill="#888" />

	<path d="M 50 1500 l 150 250 l 640 0 q 90 0 90 -90 l 0 -90 l -40 0 l 0 90 q 0 50 -50 50 l -610 0 l -170 -280 z" stroke="#444" stroke-width="8" fill="#fbf74e" />

	<g>
		<path d="M 30 7280 l 0 -6910 q 30 -330 1155 -340 q 1140 10 1155 340 l 0 6910 q -30 70 -80 100 l -2150 0 q -50 -30 -80 -110" stroke="#fbf74e" stroke-width="60" fill="none" />
		<path d="M 30 420 q 30 -330 1155 -340 q 1140 10 1155 340" stroke="#fbf74e" stroke-width="60" fill="none" />
		<path d="M 30 450 q 30 -330 1155 -340 q 1140 10 1155 340" stroke="#fbf74e" stroke-width="60" fill="none" />
		<path d="M 30 470 q 30 -330 1155 -340 q 1140 10 1155 340" stroke="#fbf74e" stroke-width="60" fill="none" />
		<path d="M 30 500 q 30 -330 1155 -340 q 1140 10 1155 340" stroke="#fbf74e" stroke-width="60" fill="none" />
		<path d="M 5 7305 l 0 -6935 q 30 -355 1180 -365 q 1140 0 1180 365 l 0 6935 q -30 70 -80 100 l -2200 0 q -50 -30 -80 -110" stroke="#666" stroke-width="10" fill="none" />
	</g>

  <!-- windws -->
	<g stroke="#aec6f9" stroke-width="40" fill="none">
		<path d="M 40 630 l 0 -90 q 30 -330 1145 -340 q 1140 10 1145 340 l 0 90" />
	</g>


	<path d="M 2370 2300 l -700 0 l 0 160 l -250 200 l -500 0 l 0 3800 l 650 0 l 0 -200 l 800 0 l 0 -760 l -800 0 l 0 -900 l 320 0 l 0 -1540 l 480 0 z" stroke="#444" stroke-width="8" fill="#555" />
	<path d="M 2370 2300 l -600 0 l 0 210 l 140 70 l 0 420 l -20 20 l 0 40 l 480 0 z" stroke="#444" stroke-width="8" fill="#4a4a4a" />
	<path d="M 2370 5500 l -600 0 l 0 210 l 140 70 l 0 480 l 460 0 z" stroke="#444" stroke-width="8" fill="#4a4a4a" />




	<circle cx="1730" cy="2200" r="30" stroke="#444" stroke-width="8" fill="#fbf74e" />
	<circle cx="1730" cy="3100" r="30" stroke="#444" stroke-width="8" fill="#fbf74e" />
	<circle cx="1730" cy="5400" r="30" stroke="#444" stroke-width="8" fill="#fbf74e" />
	<circle cx="1730" cy="6320" r="30" stroke="#444" stroke-width="8" fill="#fbf74e" />



	<g stroke="#84652c" stroke-width="20" fill="#a78649" transform="translate(320, 960)">
		<path d="M 10 480 l 0 -320  q 0 -100 100 -100  l 260 0 q 100 0 100 100 l 0 320 z" />
		<path d="M 10 480  q 50 150 140 170 l 170 0 q 90 -20 150 -170 z" fill="#9a7c45" />
		<path d="M 10 480  q 50 130 140 150 l 170 0 q 90 -20 150 -150" fill="none" />
	</g>

	<!-- seats -->
	<g transform="translate(1820, 840)">
		<rect x="20" y="160" width="470" height="280" fill="#555" />
		<g stroke="#84652c" stroke-width="20" fill="#a78649" >
			<path d="M 10 480 l 0 -380  q 0 -50 40 -50  l 340 0 q 40 0 40 50 l 0 400 z" />
			<path d="M 10 100 l 430 0" />
			<path d="M 10 480  q 20 150 120 170 l 180 0 q 100 -20 120 -170 z" fill="#9a7c45" />
			<path d="M 10 480  q 20 130 120 150 l 180 0 q 100 -20 120 -150" fill="none" />
			<path d="M 130 640 l 190 0" stroke="#444" fill="none" />
		</g>
		<rect x="20" y="910" width="470" height="280" fill="#555" />
		<g stroke="#84652c" stroke-width="20" fill="#a78649" transform="translate(0, 750)" >
			<path d="M 10 480 l 0 -380  q 0 -50 40 -50  l 340 0 q 40 0 40 50 l 0 400 z" />
			<path d="M 10 100 l 430 0" />
			<path d="M 10 480  q 20 150 120 170 l 180 0 q 100 -20 120 -170 z" fill="#9a7c45" />
			<path d="M 10 480  q 20 130 120 150 l 180 0 q 100 -20 120 -150" fill="none" />
			<path d="M 130 640 l 190 0" stroke="#444" fill="none" />
		</g>
	</g>

	<g transform="translate(1820, 3300)">
		<rect x="20" y="160" width="470" height="280" fill="#555" />
		<g stroke="#84652c" stroke-width="20" fill="#a78649" >
			<path d="M 10 480 l 0 -380  q 0 -50 40 -50  l 340 0 q 40 0 40 50 l 0 400 z" />
			<path d="M 10 100 l 430 0" />
			<path d="M 10 480  q 20 150 120 170 l 180 0 q 100 -20 120 -170 z" fill="#9a7c45" />
			<path d="M 10 480  q 20 130 120 150 l 180 0 q 100 -20 120 -150" fill="none" />
			<path d="M 130 640 l 190 0" stroke="#444" fill="none" />
		</g>
		<rect x="20" y="910" width="470" height="280" fill="#555" />
		<g stroke="#84652c" stroke-width="20" fill="#a78649" transform="translate(0, 750)" >
			<path d="M 10 480 l 0 -380  q 0 -50 40 -50  l 340 0 q 40 0 40 50 l 0 400 z" />
			<path d="M 10 100 l 430 0" />
			<path d="M 10 480  q 20 150 120 170 l 180 0 q 100 -20 120 -170 z" fill="#9a7c45" />
			<path d="M 10 480  q 20 130 120 150 l 180 0 q 100 -20 120 -150" fill="none" />
			<path d="M 130 640 l 190 0" stroke="#444" fill="none" />
		</g>
		<rect x="20" y="1660" width="470" height="280" fill="#555" />
		<g stroke="#84652c" stroke-width="20" fill="#a78649" transform="translate(0, 1500)" >
			<path d="M 10 480 l 0 -380  q 0 -50 40 -50  l 340 0 q 40 0 40 50 l 0 400 z" />
			<path d="M 10 100 l 430 0" />
			<path d="M 10 480  q 20 150 120 170 l 180 0 q 100 -20 120 -170 z" fill="#9a7c45" />
			<path d="M 10 480  q 20 130 120 150 l 180 0 q 100 -20 120 -150" fill="none" />
			<path d="M 130 640 l 190 0" stroke="#444" fill="none" />
		</g>
	</g>

	<g transform="translate(1620, 7260) rotate(-90)">
		<rect x="20" y="160" width="470" height="280" fill="#555" />
		<g stroke="#84652c" stroke-width="20" fill="#a78649" >
			<path d="M 10 480 l 0 -380  q 0 -50 40 -50  l 340 0 q 40 0 40 50 l 0 400 z" />
			<path d="M 10 100 l 430 0" />
			<path d="M 10 480  q 20 150 120 170 l 180 0 q 100 -20 120 -170 z" fill="#9a7c45" />
			<path d="M 10 480  q 20 130 120 150 l 180 0 q 100 -20 120 -150" fill="none" />
			<path d="M 130 640 l 190 0" stroke="#444" fill="none" />
		</g>
		<g stroke="#84652c" stroke-width="20" fill="#a78649" transform="translate(450, 0)" >
			<path d="M 10 480 l 0 -380  q 0 -50 40 -50  l 340 0 q 40 0 40 50 l 0 400 z" />
			<path d="M 10 100 l 430 0" />
			<path d="M 10 480  q 20 150 120 170 l 180 0 q 100 -20 120 -170 z" fill="#9a7c45" />
			<path d="M 10 480  q 20 130 120 150 l 180 0 q 100 -20 120 -150" fill="none" />
			<path d="M 130 640 l 190 0" stroke="#444" fill="none" />
		</g>
	</g>

	<g transform="translate(110, 2150)">
		<rect x="-50" y="160" width="580" height="280" fill="#555" />
		<g stroke="#84652c" stroke-width="20" fill="#a78649" >
			<path d="M 10 480 l 0 -380  q 0 -50 40 -50  l 340 0 q 40 0 40 50 l 0 400 z" />
			<path d="M 10 100 l 430 0" />
			<path d="M 10 480  q 20 150 120 170 l 180 0 q 100 -20 120 -170 z" fill="#9a7c45" />
			<path d="M 10 480  q 20 130 120 150 l 180 0 q 100 -20 120 -150" fill="none" />
			<path d="M 130 640 l 190 0" stroke="#444" fill="none" />
		</g>
		<g stroke="#84652c" stroke-width="20" fill="#a78649" transform="translate(450, 0)" >
			<path d="M 10 480 l 0 -380  q 0 -50 40 -50  l 340 0 q 40 0 40 50 l 0 400 z" />
			<path d="M 10 100 l 430 0" />
			<path d="M 10 480  q 20 150 120 170 l 180 0 q 100 -20 120 -170 z" fill="#9a7c45" />
			<path d="M 10 480  q 20 130 120 150 l 180 0 q 100 -20 120 -150" fill="none" />
			<path d="M 130 640 l 190 0" stroke="#444" fill="none" />
		</g>
	</g>

	<g transform="translate(110, 2900)">
		<rect x="-50" y="160" width="580" height="280" fill="#555" />
		<g stroke="#84652c" stroke-width="20" fill="#a78649" >
			<path d="M 10 480 l 0 -380  q 0 -50 40 -50  l 340 0 q 40 0 40 50 l 0 400 z" />
			<path d="M 10 100 l 430 0" />
			<path d="M 10 480  q 20 150 120 170 l 180 0 q 100 -20 120 -170 z" fill="#9a7c45" />
			<path d="M 10 480  q 20 130 120 150 l 180 0 q 100 -20 120 -150" fill="none" />
			<path d="M 130 640 l 190 0" stroke="#444" fill="none" />
		</g>
		<g stroke="#84652c" stroke-width="20" fill="#a78649" transform="translate(450, 0)" >
			<path d="M 10 480 l 0 -380  q 0 -50 40 -50  l 340 0 q 40 0 40 50 l 0 400 z" />
			<path d="M 10 100 l 430 0" />
			<path d="M 10 480  q 20 150 120 170 l 180 0 q 100 -20 120 -170 z" fill="#9a7c45" />
			<path d="M 10 480  q 20 130 120 150 l 180 0 q 100 -20 120 -150" fill="none" />
			<path d="M 130 640 l 190 0" stroke="#444" fill="none" />
		</g>
	</g>

	<g transform="translate(110, 3650)">
		<rect x="-50" y="160" width="580" height="280" fill="#555" />
		<g stroke="#84652c" stroke-width="20" fill="#a78649" >
			<path d="M 10 480 l 0 -380  q 0 -50 40 -50  l 340 0 q 40 0 40 50 l 0 400 z" />
			<path d="M 10 100 l 430 0" />
			<path d="M 10 480  q 20 150 120 170 l 180 0 q 100 -20 120 -170 z" fill="#9a7c45" />
			<path d="M 10 480  q 20 130 120 150 l 180 0 q 100 -20 120 -150" fill="none" />
			<path d="M 130 640 l 190 0" stroke="#444" fill="none" />
		</g>
		<g stroke="#84652c" stroke-width="20" fill="#a78649" transform="translate(450, 0)" >
			<path d="M 10 480 l 0 -380  q 0 -50 40 -50  l 340 0 q 40 0 40 50 l 0 400 z" />
			<path d="M 10 100 l 430 0" />
			<path d="M 10 480  q 20 150 120 170 l 180 0 q 100 -20 120 -170 z" fill="#9a7c45" />
			<path d="M 10 480  q 20 130 120 150 l 180 0 q 100 -20 120 -150" fill="none" />
			<path d="M 130 640 l 190 0" stroke="#444" fill="none" />
		</g>
	</g>

	<g transform="translate(110, 4400)">
		<rect x="-50" y="160" width="580" height="280" fill="#555" />
		<g stroke="#84652c" stroke-width="20" fill="#a78649" >
			<path d="M 10 480 l 0 -380  q 0 -50 40 -50  l 340 0 q 40 0 40 50 l 0 400 z" />
			<path d="M 10 100 l 430 0" />
			<path d="M 10 480  q 20 150 120 170 l 180 0 q 100 -20 120 -170 z" fill="#9a7c45" />
			<path d="M 10 480  q 20 130 120 150 l 180 0 q 100 -20 120 -150" fill="none" />
			<path d="M 130 640 l 190 0" stroke="#444" fill="none" />
		</g>
		<g stroke="#84652c" stroke-width="20" fill="#a78649" transform="translate(450, 0)" >
			<path d="M 10 480 l 0 -380  q 0 -50 40 -50  l 340 0 q 40 0 40 50 l 0 400 z" />
			<path d="M 10 100 l 430 0" />
			<path d="M 10 480  q 20 150 120 170 l 180 0 q 100 -20 120 -170 z" fill="#9a7c45" />
			<path d="M 10 480  q 20 130 120 150 l 180 0 q 100 -20 120 -150" fill="none" />
			<path d="M 130 640 l 190 0" stroke="#444" fill="none" />
		</g>
	</g>

	<g transform="translate(110, 5150)">
		<rect x="-50" y="160" width="580" height="280" fill="#555" />
		<g stroke="#84652c" stroke-width="20" fill="#a78649" >
			<path d="M 10 480 l 0 -380  q 0 -50 40 -50  l 340 0 q 40 0 40 50 l 0 400 z" />
			<path d="M 10 100 l 430 0" />
			<path d="M 10 480  q 20 150 120 170 l 180 0 q 100 -20 120 -170 z" fill="#9a7c45" />
			<path d="M 10 480  q 20 130 120 150 l 180 0 q 100 -20 120 -150" fill="none" />
			<path d="M 130 640 l 190 0" stroke="#444" fill="none" />
		</g>
		<g stroke="#84652c" stroke-width="20" fill="#a78649" transform="translate(450, 0)" >
			<path d="M 10 480 l 0 -380  q 0 -50 40 -50  l 340 0 q 40 0 40 50 l 0 400 z" />
			<path d="M 10 100 l 430 0" />
			<path d="M 10 480  q 20 150 120 170 l 180 0 q 100 -20 120 -170 z" fill="#9a7c45" />
			<path d="M 10 480  q 20 130 120 150 l 180 0 q 100 -20 120 -150" fill="none" />
			<path d="M 130 640 l 190 0" stroke="#444" fill="none" />
		</g>
	</g>

	<g transform="translate(110, 5900)">
		<rect x="-50" y="160" width="580" height="280" fill="#555" />
		<g stroke="#84652c" stroke-width="20" fill="#a78649" >
			<path d="M 10 480 l 0 -380  q 0 -50 40 -50  l 340 0 q 40 0 40 50 l 0 400 z" />
			<path d="M 10 100 l 430 0" />
			<path d="M 10 480  q 20 150 120 170 l 180 0 q 100 -20 120 -170 z" fill="#9a7c45" />
			<path d="M 10 480  q 20 130 120 150 l 180 0 q 100 -20 120 -150" fill="none" />
			<path d="M 130 640 l 190 0" stroke="#444" fill="none" />
		</g>
		<g stroke="#84652c" stroke-width="20" fill="#a78649" transform="translate(450, 0)" >
			<path d="M 10 480 l 0 -380  q 0 -50 40 -50  l 340 0 q 40 0 40 50 l 0 400 z" />
			<path d="M 10 100 l 430 0" />
			<path d="M 10 480  q 20 150 120 170 l 180 0 q 100 -20 120 -170 z" fill="#9a7c45" />
			<path d="M 10 480  q 20 130 120 150 l 180 0 q 100 -20 120 -150" fill="none" />
			<path d="M 130 640 l 190 0" stroke="#444" fill="none" />
		</g>
	</g>

	<g transform="translate(110, 6650)">
		<rect x="-50" y="160" width="1280" height="280" fill="#555" />
		<g stroke="#84652c" stroke-width="20" fill="#a78649" >
			<path d="M 10 480 l 0 -380  q 0 -50 40 -50  l 340 0 q 40 0 40 50 l 0 400 z" />
			<path d="M 10 100 l 430 0" />
			<path d="M 10 480  q 20 150 120 170 l 180 0 q 100 -20 120 -170 z" fill="#9a7c45" />
			<path d="M 10 480  q 20 130 120 150 l 180 0 q 100 -20 120 -150" fill="none" />
			<path d="M 130 640 l 190 0" stroke="#444" fill="none" />
		</g>
		<g stroke="#84652c" stroke-width="20" fill="#a78649" transform="translate(450, 0)" >
			<path d="M 10 480 l 0 -380  q 0 -50 40 -50  l 340 0 q 40 0 40 50 l 0 400 z" />
			<path d="M 10 100 l 430 0" />
			<path d="M 10 480  q 20 150 120 170 l 180 0 q 100 -20 120 -170 z" fill="#9a7c45" />
			<path d="M 10 480  q 20 130 120 150 l 180 0 q 100 -20 120 -150" fill="none" />
			<path d="M 130 640 l 190 0" stroke="#444" fill="none" />
		</g>
		<g stroke="#84652c" stroke-width="20" fill="#a78649" transform="translate(900, 0)" >
			<path d="M 10 480 l 0 -380  q 0 -50 40 -50  l 340 0 q 40 0 40 50 l 0 400 z" />
			<path d="M 10 100 l 430 0" />
			<path d="M 10 480  q 20 150 120 170 l 180 0 q 100 -20 120 -170 z" fill="#9a7c45" />
			<path d="M 10 480  q 20 130 120 150 l 180 0 q 100 -20 120 -150" fill="none" />
			<path d="M 130 640 l 190 0" stroke="#444" fill="none" />
		</g>
	</g>

</svg>