<svg width="2980" height="7830" xmlns="http://www.w3.org/2000/svg" xmlns:xlink="http://www.w3.org/1999/xlink" viewBox="-300 -200 2980 7830">

	<defs>
	  <linearGradient id="linear-left" x1="0%" y1="0%" x2="100%" y2="0%">
	    <stop offset="0%"   stop-color="rgba(255,118,1,0)"/>
	    <stop offset="100%" stop-color="rgba(255,118,1,0.3)"/>
	  </linearGradient>
	</defs>

	<g transform="translate(190, -100) rotate(60)">
		<path d="M 180 130 l -180 -130 l 0 380 l 180 -130 z" stroke="none" stroke-width="0" fill="url(#linear-left)"/>
	</g>

	<g transform="translate(-230, 1520)">
		<path d="M 180 130 l -180 -130 l 0 380 l 180 -130 z" stroke="none" stroke-width="0" fill="url(#linear-left)"/>
	</g>

	<g transform="translate(-30, 7630) rotate(-90)">
		<path d="M 180 130 l -180 -130 l 0 380 l 180 -130 z" stroke="none" stroke-width="0" fill="url(#linear-left)"/>
	</g>

	<path d="M 110 180 q 10 -25 50 -20 z" stroke="#ff7702" stroke-width="20" fill="#ff7702" stroke-linecap="round" />
	<path d="M 240 110 q 20 -35 140 -30 z" stroke="#f9ffc8" stroke-width="20" fill="#f9ffc8" stroke-linecap="round" />
	<path d="M 430 70 q 20 -35 140 -25 z" stroke="#f9ffc8" stroke-width="20" fill="#f9ffc8" stroke-linecap="round" />

	<path d="M 2270 180 q -10 -25 -50 -20 z" stroke="#ff7702" stroke-width="20" fill="#ff7702" stroke-linecap="round" />
	<path d="M 2140 110 q -20 -35 -140 -30 z" stroke="#f9ffc8" stroke-width="20" fill="#f9ffc8" stroke-linecap="round" />
	<path d="M 1950 70 q -20 -35 -140 -25 z" stroke="#f9ffc8" stroke-width="20" fill="#f9ffc8" stroke-linecap="round" />

	<rect x="-30" y="1660" width="30" height="100" stroke="#444" stroke-width="2" fill="#ff7702" />
	<rect x="2370" y="1660" width="30" height="100" stroke="#444" stroke-width="2" fill="#ff7702" />

	<rect x="120" y="7405" width="90" height="30" stroke="#444" stroke-width="2" fill="#ff7702" />
	<rect x="210" y="7405" width="90" height="30" stroke="#444" stroke-width="2" fill="#ff3838" />
	<rect x="300" y="7405" width="90" height="30" stroke="#444" stroke-width="2" fill="#fff" />
	<rect x="390" y="7405" width="90" height="30" stroke="#444" stroke-width="2" fill="#ff3838" />

	<rect x="2160" y="7405" width="90" height="30" stroke="#444" stroke-width="2" fill="#ff7702" />
	<rect x="2070" y="7405" width="90" height="30" stroke="#444" stroke-width="2" fill="#ff3838" />
	<rect x="1980" y="7405" width="90" height="30" stroke="#444" stroke-width="2" fill="#fff" />
	<rect x="1890" y="7405" width="90" height="30" stroke="#444" stroke-width="2" fill="#ff3838" />


	<g>
		<path d="M 25 7280 
						l 0 -6910 
						q 30 -330 1160 -340 
						q 1140 10 1160 340
						l 0 6910
						q -30 70 -80 100
						l -2160 0
						q -50 -30 -80 -110" 
						stroke="#888" stroke-width="50" fill="#fff" />
	</g>
	
</svg>